<svg width="1302" height="324" viewBox="0 0 1302 324" fill="none" xmlns="http://www.w3.org/2000/svg">
<path d="M39.8906 25.8906C42.1719 25.8906 44.0312 26.2031 45.4688 26.8281C46.9375 27.4531 48.2188 28.2656 49.3125 29.2656V33.9062C48.625 33.4062 47.8438 32.8594 46.9688 32.2656C46.125 31.6719 45.125 31.1562 43.9688 30.7188C42.8438 30.25 41.4844 30.0156 39.8906 30.0156C37.5469 30.0156 35.4531 30.5469 33.6094 31.6094C31.7656 32.6719 30.3125 34.1406 29.25 36.0156C28.1875 37.8594 27.6562 39.9531 27.6562 42.2969C27.6562 44.6406 28.1875 46.7344 29.25 48.5781C30.3125 50.4219 31.7656 51.8906 33.6094 52.9844C35.4531 54.0469 37.5469 54.5781 39.8906 54.5781C42.2969 54.5781 44.3438 54.1875 46.0312 53.4062C47.75 52.5938 49.1562 51.7656 50.25 50.9219V55.1406C49.1562 56.1094 47.7188 56.9531 45.9375 57.6719C44.1875 58.3594 42.1719 58.7031 39.8906 58.7031C37.5156 58.7031 35.3281 58.2812 33.3281 57.4375C31.3281 56.5625 29.5781 55.375 28.0781 53.875C26.5781 52.375 25.4062 50.6406 24.5625 48.6719C23.75 46.6719 23.3438 44.5469 23.3438 42.2969C23.3438 40.0469 23.75 37.9375 24.5625 35.9688C25.4062 33.9688 26.5781 32.2188 28.0781 30.7188C29.5781 29.2188 31.3281 28.0469 33.3281 27.2031C35.3281 26.3281 37.5156 25.8906 39.8906 25.8906ZM65.1719 34.0938C67.5469 34.0938 69.6562 34.6562 71.5 35.7812C73.3438 36.9062 74.7812 38.4062 75.8125 40.2812C76.875 42.1562 77.4062 44.2031 77.4062 46.4219C77.4062 48.6406 76.875 50.6875 75.8125 52.5625C74.7812 54.4062 73.3438 55.8906 71.5 57.0156C69.6562 58.1406 67.5469 58.7031 65.1719 58.7031C62.7969 58.7031 60.6875 58.1406 58.8438 57.0156C57 55.8906 55.5469 54.4062 54.4844 52.5625C53.4531 50.6875 52.9375 48.6406 52.9375 46.4219C52.9375 44.2031 53.4531 42.1562 54.4844 40.2812C55.5469 38.4062 57 36.9062 58.8438 35.7812C60.6875 34.6562 62.7969 34.0938 65.1719 34.0938ZM65.1719 37.8438C63.5156 37.8438 62.0625 38.25 60.8125 39.0625C59.5625 39.8438 58.5938 40.8906 57.9062 42.2031C57.25 43.4844 56.9219 44.8906 56.9219 46.4219C56.9219 47.9219 57.25 49.3281 57.9062 50.6406C58.5938 51.9219 59.5625 52.9688 60.8125 53.7812C62.0625 54.5625 63.5156 54.9531 65.1719 54.9531C66.8594 54.9531 68.3125 54.5625 69.5312 53.7812C70.7812 52.9688 71.7344 51.9219 72.3906 50.6406C73.0781 49.3281 73.4219 47.9219 73.4219 46.4219C73.4219 44.8906 73.0781 43.4844 72.3906 42.2031C71.7344 40.8906 70.7812 39.8438 69.5312 39.0625C68.3125 38.25 66.8594 37.8438 65.1719 37.8438ZM85.5781 34.5625V38.2656C86.0781 37.6406 86.7188 37.0156 87.5 36.3906C88.2812 35.7344 89.1562 35.1875 90.125 34.75C91.125 34.3125 92.1562 34.0938 93.2188 34.0938C94.8125 34.0938 96.2656 34.4531 97.5781 35.1719C98.8906 35.8594 99.9375 36.9219 100.719 38.3594C101.5 39.7656 101.891 41.5469 101.891 43.7031V58H98.0469L98 44.0781C98 42.0469 97.5469 40.5 96.6406 39.4375C95.7656 38.375 94.4062 37.8438 92.5625 37.8438C91.3125 37.8438 90.0625 38.3125 88.8125 39.25C87.5938 40.1562 86.5156 41.2188 85.5781 42.4375V58H81.7344V34.5625H85.5781ZM117.75 34.0938C120.125 34.0938 122.234 34.6562 124.078 35.7812C125.922 36.9062 127.359 38.4062 128.391 40.2812C129.453 42.1562 129.984 44.2031 129.984 46.4219C129.984 48.6406 129.453 50.6875 128.391 52.5625C127.359 54.4062 125.922 55.8906 124.078 57.0156C122.234 58.1406 120.125 58.7031 117.75 58.7031C115.375 58.7031 113.266 58.1406 111.422 57.0156C109.578 55.8906 108.125 54.4062 107.062 52.5625C106.031 50.6875 105.516 48.6406 105.516 46.4219C105.516 44.2031 106.031 42.1562 107.062 40.2812C108.125 38.4062 109.578 36.9062 111.422 35.7812C113.266 34.6562 115.375 34.0938 117.75 34.0938ZM117.75 37.8438C116.094 37.8438 114.641 38.25 113.391 39.0625C112.141 39.8438 111.172 40.8906 110.484 42.2031C109.828 43.4844 109.5 44.8906 109.5 46.4219C109.5 47.9219 109.828 49.3281 110.484 50.6406C111.172 51.9219 112.141 52.9688 113.391 53.7812C114.641 54.5625 116.094 54.9531 117.75 54.9531C119.438 54.9531 120.891 54.5625 122.109 53.7812C123.359 52.9688 124.312 51.9219 124.969 50.6406C125.656 49.3281 126 47.9219 126 46.4219C126 44.8906 125.656 43.4844 124.969 42.2031C124.312 40.8906 123.359 39.8438 122.109 39.0625C120.891 38.25 119.438 37.8438 117.75 37.8438ZM144.906 34.0938C146.625 34.0938 148.109 34.375 149.359 34.9375C150.609 35.4688 151.469 35.9531 151.938 36.3906V40.2812C151.062 39.625 150.062 39.0625 148.938 38.5938C147.812 38.0938 146.469 37.8438 144.906 37.8438C143.25 37.8438 141.797 38.25 140.547 39.0625C139.297 39.8438 138.328 40.8906 137.641 42.2031C136.984 43.4844 136.656 44.8906 136.656 46.4219C136.656 47.9219 136.984 49.3281 137.641 50.6406C138.328 51.9219 139.297 52.9688 140.547 53.7812C141.797 54.5625 143.25 54.9531 144.906 54.9531C146.469 54.9531 147.812 54.7188 148.938 54.25C150.062 53.75 151.062 53.1719 151.938 52.5156V56.4062C151.469 56.875 150.609 57.375 149.359 57.9062C148.109 58.4375 146.625 58.7031 144.906 58.7031C142.531 58.7031 140.422 58.1406 138.578 57.0156C136.734 55.8906 135.281 54.4062 134.219 52.5625C133.188 50.6875 132.672 48.6406 132.672 46.4219C132.672 44.2031 133.188 42.1562 134.219 40.2812C135.281 38.4062 136.734 36.9062 138.578 35.7812C140.422 34.6562 142.531 34.0938 144.906 34.0938ZM165.922 34.0938C168.328 34.0938 170.328 34.5938 171.922 35.5938C173.516 36.5938 174.703 37.9531 175.484 39.6719C176.297 41.3906 176.703 43.3281 176.703 45.4844V47.7812H158.703C158.891 49.0938 159.344 50.2969 160.062 51.3906C160.781 52.4844 161.719 53.3594 162.875 54.0156C164.031 54.6406 165.359 54.9531 166.859 54.9531C168.547 54.9531 170.125 54.5312 171.594 53.6875C173.062 52.8125 174.297 51.8594 175.297 50.8281L175.25 55C174.812 55.5312 174.156 56.0938 173.281 56.6875C172.438 57.25 171.453 57.7188 170.328 58.0938C169.234 58.5 168.078 58.7031 166.859 58.7031C164.484 58.7031 162.375 58.1406 160.531 57.0156C158.688 55.8906 157.234 54.4062 156.172 52.5625C155.141 50.6875 154.625 48.6406 154.625 46.4219C154.625 44.2031 155.109 42.1562 156.078 40.2812C157.047 38.4062 158.375 36.9062 160.062 35.7812C161.781 34.6562 163.734 34.0938 165.922 34.0938ZM165.922 37.8438C163.984 37.8438 162.391 38.5 161.141 39.8125C159.891 41.0938 159.109 42.6562 158.797 44.5H172.906C172.75 42.9688 172.312 41.7188 171.594 40.75C170.906 39.7812 170.062 39.0625 169.062 38.5938C168.062 38.0938 167.016 37.8438 165.922 37.8438ZM202.75 34.0938C205.156 34.0938 207.156 34.5938 208.75 35.5938C210.344 36.5938 211.531 37.9531 212.312 39.6719C213.125 41.3906 213.531 43.3281 213.531 45.4844V47.7812H195.531C195.719 49.0938 196.172 50.2969 196.891 51.3906C197.609 52.4844 198.547 53.3594 199.703 54.0156C200.859 54.6406 202.188 54.9531 203.688 54.9531C205.375 54.9531 206.953 54.5312 208.422 53.6875C209.891 52.8125 211.125 51.8594 212.125 50.8281L212.078 55C211.641 55.5312 210.984 56.0938 210.109 56.6875C209.266 57.25 208.281 57.7188 207.156 58.0938C206.062 58.5 204.906 58.7031 203.688 58.7031C201.312 58.7031 199.203 58.1406 197.359 57.0156C195.516 55.8906 194.062 54.4062 193 52.5625C191.969 50.6875 191.453 48.6406 191.453 46.4219C191.453 44.2031 191.938 42.1562 192.906 40.2812C193.875 38.4062 195.203 36.9062 196.891 35.7812C198.609 34.6562 200.562 34.0938 202.75 34.0938ZM202.75 37.8438C200.812 37.8438 199.219 38.5 197.969 39.8125C196.719 41.0938 195.938 42.6562 195.625 44.5H209.734C209.578 42.9688 209.141 41.7188 208.422 40.75C207.734 39.7812 206.891 39.0625 205.891 38.5938C204.891 38.0938 203.844 37.8438 202.75 37.8438ZM221.703 24.25V58H217.859V24.25H221.703ZM243.578 34.5625V37.5625C244.328 36.7188 245.281 35.9375 246.438 35.2188C247.625 34.4688 249.016 34.0938 250.609 34.0938C252.297 34.0938 253.875 34.5 255.344 35.3125C256.812 36.0938 257.938 37.2812 258.719 38.875C259.812 37.5625 261 36.4375 262.281 35.5C263.562 34.5625 265.062 34.0938 266.781 34.0938C268.375 34.0938 269.859 34.4531 271.234 35.1719C272.641 35.8594 273.766 36.9219 274.609 38.3594C275.484 39.7656 275.922 41.5469 275.922 43.7031V58H272.078L272.031 44.0781C272.031 42.0469 271.5 40.5 270.438 39.4375C269.406 38.375 267.969 37.8438 266.125 37.8438C264.781 37.8438 263.609 38.2656 262.609 39.1094C261.609 39.9531 260.656 40.9375 259.75 42.0625V58H255.906L255.859 44.0781C255.859 42.0469 255.328 40.5 254.266 39.4375C253.234 38.375 251.797 37.8438 249.953 37.8438C248.672 37.8438 247.5 38.2188 246.438 38.9688C245.406 39.7188 244.453 40.625 243.578 41.6875V58H239.734V34.5625H243.578ZM290.844 34.0938C293.25 34.0938 295.25 34.5938 296.844 35.5938C298.438 36.5938 299.625 37.9531 300.406 39.6719C301.219 41.3906 301.625 43.3281 301.625 45.4844V47.7812H283.625C283.812 49.0938 284.266 50.2969 284.984 51.3906C285.703 52.4844 286.641 53.3594 287.797 54.0156C288.953 54.6406 290.281 54.9531 291.781 54.9531C293.469 54.9531 295.047 54.5312 296.516 53.6875C297.984 52.8125 299.219 51.8594 300.219 50.8281L300.172 55C299.734 55.5312 299.078 56.0938 298.203 56.6875C297.359 57.25 296.375 57.7188 295.25 58.0938C294.156 58.5 293 58.7031 291.781 58.7031C289.406 58.7031 287.297 58.1406 285.453 57.0156C283.609 55.8906 282.156 54.4062 281.094 52.5625C280.062 50.6875 279.547 48.6406 279.547 46.4219C279.547 44.2031 280.031 42.1562 281 40.2812C281.969 38.4062 283.297 36.9062 284.984 35.7812C286.703 34.6562 288.656 34.0938 290.844 34.0938ZM290.844 37.8438C288.906 37.8438 287.312 38.5 286.062 39.8125C284.812 41.0938 284.031 42.6562 283.719 44.5H297.828C297.672 42.9688 297.234 41.7188 296.516 40.75C295.828 39.7812 294.984 39.0625 293.984 38.5938C292.984 38.0938 291.938 37.8438 290.844 37.8438ZM299.141 24.25L292.484 30.5781H288.641L293.797 24.25H299.141ZM312.422 27.8125V34.5625H319.266V38.1719H312.422V51.9062C312.422 52.875 312.672 53.6406 313.172 54.2031C313.672 54.7656 314.438 55.0469 315.469 55.0469C316.406 55.0469 317.188 54.9375 317.812 54.7188C318.438 54.4688 318.984 54.2031 319.453 53.9219V57.0625C318.828 57.5625 318.156 57.9531 317.438 58.2344C316.75 58.5469 315.812 58.7031 314.625 58.7031C312.625 58.7031 311.109 58.1094 310.078 56.9219C309.078 55.7031 308.578 54.0938 308.578 52.0938V38.1719H304.078V37.0469C305.609 36.3594 306.891 35.2344 307.922 33.6719C308.953 32.0781 309.859 30.125 310.641 27.8125H312.422ZM334.844 34.0938C337.219 34.0938 339.328 34.6562 341.172 35.7812C343.016 36.9062 344.453 38.4062 345.484 40.2812C346.547 42.1562 347.078 44.2031 347.078 46.4219C347.078 48.6406 346.547 50.6875 345.484 52.5625C344.453 54.4062 343.016 55.8906 341.172 57.0156C339.328 58.1406 337.219 58.7031 334.844 58.7031C332.469 58.7031 330.359 58.1406 328.516 57.0156C326.672 55.8906 325.219 54.4062 324.156 52.5625C323.125 50.6875 322.609 48.6406 322.609 46.4219C322.609 44.2031 323.125 42.1562 324.156 40.2812C325.219 38.4062 326.672 36.9062 328.516 35.7812C330.359 34.6562 332.469 34.0938 334.844 34.0938ZM334.844 37.8438C333.188 37.8438 331.734 38.25 330.484 39.0625C329.234 39.8438 328.266 40.8906 327.578 42.2031C326.922 43.4844 326.594 44.8906 326.594 46.4219C326.594 47.9219 326.922 49.3281 327.578 50.6406C328.266 51.9219 329.234 52.9688 330.484 53.7812C331.734 54.5625 333.188 54.9531 334.844 54.9531C336.531 54.9531 337.984 54.5625 339.203 53.7812C340.453 52.9688 341.406 51.9219 342.062 50.6406C342.75 49.3281 343.094 47.9219 343.094 46.4219C343.094 44.8906 342.75 43.4844 342.062 42.2031C341.406 40.8906 340.453 39.8438 339.203 39.0625C337.984 38.25 336.531 37.8438 334.844 37.8438ZM372.594 24.25V58H368.75V54.0156C367.938 55.2656 366.828 56.3594 365.422 57.2969C364.047 58.2344 362.469 58.7031 360.688 58.7031C358.688 58.7031 356.859 58.2031 355.203 57.2031C353.547 56.1719 352.219 54.75 351.219 52.9375C350.25 51.125 349.766 49.0312 349.766 46.6562C349.766 44.0625 350.25 41.8281 351.219 39.9531C352.219 38.0781 353.578 36.6406 355.297 35.6406C357.016 34.6094 358.938 34.0938 361.062 34.0938C362.406 34.0938 363.766 34.4219 365.141 35.0781C366.547 35.7031 367.75 36.5781 368.75 37.7031V24.25H372.594ZM361.766 37.9375C360.078 37.9375 358.641 38.3594 357.453 39.2031C356.266 40.0156 355.344 41.0781 354.688 42.3906C354.062 43.7031 353.75 45.125 353.75 46.6562C353.75 48.1562 354.062 49.5469 354.688 50.8281C355.312 52.0781 356.188 53.0781 357.312 53.8281C358.469 54.5781 359.797 54.9531 361.297 54.9531C362.734 54.9531 364.016 54.5781 365.141 53.8281C366.266 53.0781 367.156 52.0469 367.812 50.7344C368.469 49.3906 368.781 47.8906 368.75 46.2344L368.703 41.7344C367.734 40.5156 366.688 39.5781 365.562 38.9219C364.469 38.2656 363.203 37.9375 361.766 37.9375ZM389.156 34.0938C391.531 34.0938 393.641 34.6562 395.484 35.7812C397.328 36.9062 398.766 38.4062 399.797 40.2812C400.859 42.1562 401.391 44.2031 401.391 46.4219C401.391 48.6406 400.859 50.6875 399.797 52.5625C398.766 54.4062 397.328 55.8906 395.484 57.0156C393.641 58.1406 391.531 58.7031 389.156 58.7031C386.781 58.7031 384.672 58.1406 382.828 57.0156C380.984 55.8906 379.531 54.4062 378.469 52.5625C377.438 50.6875 376.922 48.6406 376.922 46.4219C376.922 44.2031 377.438 42.1562 378.469 40.2812C379.531 38.4062 380.984 36.9062 382.828 35.7812C384.672 34.6562 386.781 34.0938 389.156 34.0938ZM389.156 37.8438C387.5 37.8438 386.047 38.25 384.797 39.0625C383.547 39.8438 382.578 40.8906 381.891 42.2031C381.234 43.4844 380.906 44.8906 380.906 46.4219C380.906 47.9219 381.234 49.3281 381.891 50.6406C382.578 51.9219 383.547 52.9688 384.797 53.7812C386.047 54.5625 387.5 54.9531 389.156 54.9531C390.844 54.9531 392.297 54.5625 393.516 53.7812C394.766 52.9688 395.719 51.9219 396.375 50.6406C397.062 49.3281 397.406 47.9219 397.406 46.4219C397.406 44.8906 397.062 43.4844 396.375 42.2031C395.719 40.8906 394.766 39.8438 393.516 39.0625C392.297 38.25 390.844 37.8438 389.156 37.8438Z" fill="white"/>
<path d="M94.0144 109.919C103.657 109.919 112.884 112.163 121.695 116.652C130.506 120.974 137.738 127.292 143.391 135.604C149.209 143.751 152.119 153.559 152.119 165.031C152.119 174.839 149.376 183.9 143.889 192.212C138.403 200.525 130.922 207.258 121.446 212.412C112.136 217.399 101.745 219.893 90.2738 219.893C81.795 219.893 73.9813 219.062 66.8325 217.399C59.85 215.571 54.1975 213.659 49.875 211.664V277H27.4313V109.919H94.0144ZM49.875 131.116V191.215C54.3638 193.044 60.1825 194.789 67.3313 196.452C74.6463 197.948 82.0444 198.696 89.5256 198.696C102.161 198.696 111.886 195.454 118.703 188.971C125.685 182.321 129.176 174.341 129.176 165.031C129.176 157.882 127.181 151.814 123.191 146.826C119.368 141.839 114.297 138.015 107.979 135.355C101.662 132.529 94.9288 131.116 87.78 131.116H49.875ZM225.768 109.919L303.822 277H276.889L259.433 237.1H181.129L163.424 277H136.491L214.546 109.919H225.768ZM220.531 147.824L190.356 215.903H250.206L220.531 147.824ZM384.453 105.929C403.239 105.929 419.116 109.752 432.084 117.4C445.218 125.047 455.193 135.438 462.009 148.572C468.991 161.539 472.483 176.252 472.483 192.711C472.483 209.17 468.991 223.966 462.009 237.1C455.193 250.067 445.218 260.375 432.084 268.022C419.116 275.67 403.239 279.494 384.453 279.494C372.982 279.494 362.425 278.912 352.783 277.748C343.14 276.584 333.248 275.088 323.107 273.259V112.163C333.248 110.334 343.14 108.838 352.783 107.674C362.425 106.511 372.982 105.929 384.453 105.929ZM384.453 127.126C378.468 127.126 372.068 127.375 365.251 127.874C358.435 128.206 351.868 128.788 345.551 129.619V255.803C351.868 256.468 358.435 257.05 365.251 257.549C372.068 258.047 378.468 258.297 384.453 258.297C397.919 258.297 409.474 255.471 419.116 249.818C428.925 243.999 436.406 236.186 441.56 226.377C446.88 216.402 449.54 205.18 449.54 192.711C449.54 180.242 446.88 169.104 441.56 159.295C436.406 149.32 428.925 141.506 419.116 135.854C409.474 130.035 397.919 127.126 384.453 127.126ZM605.483 180.741V201.938H524.186V255.803H616.206V277H501.743V109.919H616.206V131.116H524.186V180.741H605.483ZM675.391 109.919V255.803H767.41V277H652.947V109.919H675.391Z" fill="white"/>
<path d="M868.875 109.919V255.803H960.894V277H846.431V109.919H868.875ZM1058.73 109.919L1136.79 277H1109.85L1092.4 237.1H1014.09L996.389 277H969.456L1047.51 109.919H1058.73ZM1053.5 147.824L1023.32 215.903H1083.17L1053.5 147.824ZM1214.92 105.929C1227.23 105.929 1237.87 108.007 1246.84 112.163C1255.99 116.153 1263.05 121.639 1268.04 128.622C1273.03 135.604 1275.52 143.667 1275.52 152.811C1275.52 160.957 1273.2 168.439 1268.54 175.255C1263.89 181.905 1258.07 186.892 1251.08 190.217C1256.07 191.215 1260.98 193.293 1265.8 196.452C1270.62 199.611 1274.61 203.933 1277.77 209.419C1281.09 214.906 1282.75 221.722 1282.75 229.868C1282.75 239.178 1280.09 247.574 1274.77 255.055C1269.45 262.536 1261.81 268.521 1251.83 273.01C1242.02 277.333 1230.39 279.494 1216.92 279.494C1206.61 279.494 1195.81 278.829 1184.5 277.499C1173.36 276.335 1163.89 274.922 1156.07 273.259V112.163C1164.72 110.168 1174.11 108.672 1184.25 107.674C1194.56 106.511 1204.78 105.929 1214.92 105.929ZM1213.43 127.126C1206.45 127.126 1200.13 127.375 1194.48 127.874C1188.99 128.372 1183.67 129.121 1178.52 130.118V182.487H1217.67C1228.97 182.487 1237.62 179.661 1243.6 174.008C1249.59 168.189 1252.58 161.456 1252.58 153.809C1252.58 147.824 1250.75 142.919 1247.09 139.096C1243.44 135.106 1238.62 132.113 1232.63 130.118C1226.81 128.123 1220.41 127.126 1213.43 127.126ZM1178.52 255.304C1184.5 256.468 1191.15 257.299 1198.47 257.798C1205.78 258.131 1211.77 258.297 1216.42 258.297C1228.89 258.297 1239.2 255.72 1247.34 250.566C1255.66 245.412 1259.81 238.513 1259.81 229.868C1259.81 220.724 1255.74 213.908 1247.59 209.419C1239.61 204.764 1229.8 202.437 1218.17 202.437H1178.52V255.304Z" fill="white"/>
</svg>
